<?xml version="1.0" encoding="utf-8"?>
<!-- Generator: Adobe Illustrator 27.5.0, SVG Export Plug-In . SVG Version: 6.00 Build 0)  -->
<svg version="1.1" id="Layer_1" xmlns="http://www.w3.org/2000/svg" xmlns:xlink="http://www.w3.org/1999/xlink" x="0px" y="0px"
	 viewBox="0 0 1000 141" style="enable-background:new 0 0 1000 141;" xml:space="preserve">
<style type="text/css">
	.st0{clip-path:url(#SVGID_00000095305678159918759370000007486741663375194550_);}
	.st1{fill:#0C1A3D;}
	.st2{fill:#401197;}
</style>
<g>
	<defs>
		<rect id="SVGID_1_" width="1000" height="140.6"/>
	</defs>
	<clipPath id="SVGID_00000094610341664296071290000003472321531259679403_">
		<use xlink:href="#SVGID_1_"  style="overflow:visible;"/>
	</clipPath>
	<g style="clip-path:url(#SVGID_00000094610341664296071290000003472321531259679403_);">
		<path class="st1" d="M961.6,93.7c-10.7,0-17.8-8.1-17.8-20.3c0-12.2,7.1-20.3,17.8-20.3c10.7,0,17.8,8.1,17.8,20.3
			C979.4,85.6,972.3,93.7,961.6,93.7z M979.4,0v47.5h-0.5c-2.4-7.8-11.3-13.2-22.1-13.2c-20.5,0-34,15.6-34,39.1
			c0,23.5,13.5,39.1,34,39.1c10.8,0,19.7-5.4,22.1-13.4h0.5l2.7,11.6h17.9V0H979.4z M888.8,36.1v40.2c0,10.2-6,17-15.4,17
			c-8.6,0-14.3-6.5-14.3-16.1V36.1h-20.6v48.2c0,17,10.8,28.3,27.1,28.3c11,0,20-5.4,22.6-13.4h0.6l2.7,11.6h17.9V36.1H888.8
			L888.8,36.1z M786.5,93.1c-11.1,0-18.5-8-18.5-19.9c0-11.9,7.4-19.9,18.5-19.9c11.1,0,18.4,8,18.4,19.9
			C804.8,85.2,797.6,93.1,786.5,93.1z M786.5,112.4c23.6,0,39.4-15.6,39.4-39.1c0-23.5-15.8-39.1-39.4-39.1
			c-23.6,0-39.6,15.6-39.6,39.1C746.9,96.8,762.8,112.4,786.5,112.4z M712.9,110.8h20.6V0h-20.6V110.8L712.9,110.8z M667.6,112.6
			c14.8,0,28.4-8.9,33.9-22.3l-17.8-7.5c-2.3,6.2-8.7,10.5-16.3,10.5c-11.6,0-19.1-8-19.1-19.9c0-11.9,7.5-19.9,19.1-19.9
			c7.5,0,14,4.4,16.3,10.7l17.8-7.7c-5.4-13.4-19.1-22.3-33.9-22.3c-24.2,0-40.3,15.6-40.3,39.1C627.3,96.9,643.4,112.6,667.6,112.6
			z M577.9,92.6c-6.2,0-9.6-3-9.6-8.1V54.2H589v-18h-20.8V12.9h-20.6v72.7c0,16.1,9.3,25.1,25.6,25.1h17V92.5L577.9,92.6L577.9,92.6
			z M498.6,52c10.2,0,16.4,5.9,17.3,15.9h-34.6C482.8,57.8,489.1,52,498.6,52z M535.5,73c0-23.2-14.6-38.7-36.3-38.7
			c-21.7,0-37.3,15.6-37.3,39.1c0,23.5,15.4,39.1,38.5,39.1c14.4,0,27.7-8.1,32.9-20.2l-16.3-6.8c-2.4,5.9-8.6,9.3-16.7,9.3
			c-10.2,0-17-5.4-18.9-15h54V73z M436.8,36.2l-15.9,54.6l-16.1-54.6h-23.6l26,74.6h26.9l26-74.6H436.8L436.8,36.2z M340.5,93.2
			c-11.1,0-18.5-8-18.5-19.9c0-11.9,7.4-19.9,18.5-19.9c11.1,0,18.4,8,18.4,19.9C358.8,85.2,351.6,93.2,340.5,93.2z M340.5,112.5
			c23.6,0,39.4-15.6,39.4-39.1c0-23.5-15.8-39.1-39.4-39.1c-23.6,0-39.6,15.6-39.6,39.1C300.9,96.8,316.9,112.5,340.5,112.5z
			 M286.5,36.2c-9,0-16.3,5.6-18.4,14H268l-2.7-14h-17.9v74.6H268V77.3c0-12.4,6.3-20.5,16.1-20.5h11.4V36.2L286.5,36.2L286.5,36.2z
			 M195,93.8c-10.7,0-17.8-8.1-17.8-20.3c0-12.2,7.1-20.5,17.8-20.5c10.7,0,17.8,8.3,17.8,20.5C212.8,85.7,205.7,93.8,195,93.8z
			 M199.8,34.4c-10.8,0-19.7,5.4-22.1,13.4h-0.5l-2.7-11.6h-17.9v104.4h20.6V99.4h0.5c2.4,7.8,11.3,13.2,22.1,13.2
			c20.5,0,34-15.6,34-39.1C233.8,50,220.3,34.4,199.8,34.4z"/>
		<path class="st2" d="M95.1,61.8C95.1,77.9,82,91,65.9,91H41.4l-21.6,21.6V32.7H66C82,32.7,95.1,45.8,95.1,61.8z M66,13H0v127.6
			h19.8l29.8-29.8h16.4c27,0,48.9-21.9,48.9-48.9C114.8,34.9,93,13,66,13z"/>
	</g>
</g>
</svg>
